<svg width="187" height="44" viewBox="0 0 187 44" fill="none" xmlns="http://www.w3.org/2000/svg">
<path d="M35.2562 7.69703C34.7575 4.05373 30.9233 1.87398 27.5256 3.24411L25.7488 3.96031C20.2003 6.20234 14.4023 7.75931 8.47968 8.56893L6.54703 8.84919C2.89993 9.34742 0.686741 13.1464 2.0583 16.5406L2.86876 18.5335C5.05078 23.9829 6.5782 29.7125 7.41984 35.5356L7.70038 37.5596C8.19913 41.2029 12.0333 43.4138 15.4621 42.0126L17.2078 41.2964C22.8187 39.0232 28.679 37.4351 34.6639 36.6255L36.4719 36.3764C40.119 35.8781 42.3322 32.0791 40.9295 28.6538L40.2125 26.8789C37.9681 21.3361 36.4096 15.5441 35.5679 9.62767L35.2562 7.69703Z" fill="#451692"/>
<path d="M30.8913 4.64604C29.4574 1.25185 25.1869 0.0996968 22.2567 2.34173L20.7293 3.49388C15.96 7.0749 10.7543 10.0643 5.23694 12.3997L3.42898 13.1471C0.0624297 14.5795 -1.05975 18.8144 1.12227 21.7415L2.40031 23.4542C5.92272 28.1562 8.88404 33.2631 11.1907 38.6813L12.0012 40.5497C13.4351 43.9439 17.7056 45.0649 20.6358 42.854L22.132 41.733C26.9325 38.0897 32.2005 35.038 37.7491 32.7026L39.4324 31.9864C42.8301 30.554 43.9523 26.319 41.7391 23.3919L40.5857 21.8661C36.9698 17.1018 33.9773 11.9015 31.6394 6.42098L30.8913 4.64604Z" fill="#6528D7"/>
<path d="M24.0646 8.75586L11.6271 15.8556C8.60344 17.5994 7.57477 21.4607 9.32039 24.4501C11.066 27.4706 14.9625 28.4982 17.9861 26.7855L26.6519 21.8032C27.6806 21.2116 28.9586 21.5853 29.5509 22.5817L29.6444 22.7374C30.2366 23.765 29.8937 25.0417 28.8651 25.6334L16.6458 32.6397L18.8901 36.4699L31.1094 29.4635C34.2578 27.6574 35.3176 23.6716 33.5097 20.5265L33.4162 20.3708C31.6082 17.2258 27.5559 16.167 24.4387 17.942L15.7729 22.9243C14.869 23.4536 13.7156 23.1422 13.1857 22.2392C12.6558 21.3361 12.9675 20.184 13.8715 19.6858L26.309 12.5549L24.0646 8.75586Z" fill="white"/>
<path d="M80.2361 8.41396C80.2361 10.1578 78.9581 11.4656 77.1501 11.4656C75.1863 11.4656 73.9394 10.1578 73.9394 8.41396C73.9394 6.76357 75.2175 5.3623 77.1501 5.3623C78.9581 5.3623 80.2361 6.76357 80.2361 8.41396ZM79.7997 17.1018V33.5745H75.2798V18.0671L72.942 18.5031V14.2682L76.9008 14.237C78.8646 14.2059 79.7997 15.2023 79.7997 17.1018ZM121.882 8.25826V33.5745H117.206V10.0955L114.868 10.5314V5.39344H119.014C120.946 5.39344 121.882 6.29648 121.882 8.25826ZM64.3385 22.3332C67.4869 23.3608 70.6352 24.3573 70.6352 27.8138C70.6352 31.5505 67.7363 34.0105 63.4034 34.0105C57.0755 34.0105 54.4883 30.0869 54.4883 27.1287H58.79C59.0082 28.7168 60.6603 30.336 62.9358 30.336C65.0867 30.336 65.7725 29.3084 65.7725 28.2497C65.7725 27.4089 65.3672 26.973 64.1515 26.4748C63.9645 26.3813 63.7463 26.3191 63.5281 26.2256C62.4371 25.7897 61.0967 25.2603 59.6316 24.6998C57.0132 23.7345 55.1117 22.271 55.1117 19.2504C55.1117 16.3856 57.699 13.6454 61.9695 13.6454C67.0817 13.6454 69.2949 16.5102 69.8871 19.0636L65.7101 19.8421C65.2737 18.3785 64.2762 17.2575 62.3124 17.2575C60.7538 17.2575 59.5381 18.036 59.5381 19.3127C59.5381 20.1535 59.9122 20.7451 61.2525 21.2434C61.876 21.4613 62.5618 21.7104 63.4034 21.9907C63.7151 22.1464 64.0268 22.2398 64.3385 22.3332ZM161.158 31.3014C160.379 32.8272 158.789 33.7925 156.981 33.7925C154.176 33.7925 152.056 31.5816 152.056 28.7479C152.056 25.8831 154.144 23.7034 156.981 23.7034C158.82 23.7034 160.379 24.6687 161.127 26.1945L159.381 27.2221C158.976 26.3191 158.072 25.7274 156.95 25.7274C155.298 25.7274 154.051 27.0041 154.051 28.7479C154.051 30.4917 155.298 31.7684 156.95 31.7684C158.072 31.7684 158.976 31.1768 159.412 30.2738L161.158 31.3014ZM171.756 28.7168C171.756 31.5505 169.574 33.7614 166.831 33.7614C164.119 33.7614 161.906 31.5505 161.906 28.7168C161.906 25.852 164.088 23.6722 166.831 23.6722C169.574 23.6722 171.756 25.852 171.756 28.7168ZM163.932 28.7168C163.932 30.4606 165.21 31.7684 166.831 31.7684C168.483 31.7684 169.73 30.4917 169.73 28.7168C169.73 26.973 168.452 25.6651 166.831 25.6651C165.21 25.6963 163.932 26.973 163.932 28.7168ZM183.508 23.6722C182.261 23.6722 181.264 24.2016 180.671 25.1981C180.142 24.2327 179.238 23.6722 178.022 23.6722C176.869 23.6722 175.965 24.1393 175.372 25.0735V23.9213H173.377V33.5434H175.372V28.1563C175.372 26.4125 176.307 25.6029 177.43 25.6029C178.521 25.6029 179.175 26.3502 179.175 27.6892V33.5123H181.17V28.1563C181.17 26.4125 182.012 25.6029 183.196 25.6029C184.287 25.6029 185.004 26.3502 185.004 27.6892V33.5123H186.999V27.5646C187.031 25.1669 185.628 23.6722 183.508 23.6722ZM148.97 33.7614C149.718 33.7614 150.341 33.1074 150.341 32.329C150.341 31.5505 149.718 30.8965 148.97 30.8965C148.191 30.8965 147.598 31.5193 147.598 32.329C147.567 33.1074 148.191 33.7614 148.97 33.7614ZM144.824 14.2993H140.304V16.915C139.805 15.7628 137.842 14.019 134.226 14.019C129.082 14.019 125.466 18.3785 125.466 23.8279C125.466 29.1839 129.113 33.7925 134.226 33.7925C137.81 33.7925 139.088 32.5158 140.304 30.8654V33.5745H144.824V14.2993ZM140.491 23.8279C140.491 27.2844 138.434 29.6821 135.067 29.6821C131.701 29.6821 129.643 27.2844 129.643 23.8279C129.643 20.3715 131.701 17.9737 135.067 17.9737C138.434 17.9737 140.491 20.3715 140.491 23.8279ZM105.828 13.8633C102.867 13.8633 101.121 15.1712 99.8432 17.6935C99.2509 15.8874 96.6948 13.8633 93.6712 13.8633C91.9255 13.8633 88.9642 14.7041 87.9356 17.6001V14.2682H83.4157V33.5745H87.9356V23.7968C87.9356 20.0289 89.7747 18.1917 92.3931 18.1917C95.0115 18.1917 96.2584 19.9978 96.2584 23.7968V33.5745H100.778V23.7968C100.778 20.0289 102.306 18.2851 104.924 18.2851C107.543 18.2851 109.101 20.0289 109.101 23.7968V33.5745H113.621V22.738C113.621 16.9773 110.286 13.8633 105.828 13.8633Z" fill="#1E2248"/>
</svg>
